#!OML:ASF X:\für Bonn\!DataBase\2005_08_10_Bjorn_Final\c3d\bjorn.ASF
:FULLY-SPECIFIED
:DEGREES
124
root 1.86846 18.9091 3.27054 -177.268 -8.19427 -182.216
lowerback 2.64802 1.1416 12.6598
upperback 11.5541 -0.64474 1.95975
thorax 11.2192 0.167195 -5.06285
lowerneck -0.321982 9.12204 3.38
upperneck 15.8945 13.2187 -13.056
head 5.95361 5.525 -3.93219
rclavicle -8.74653e-015 1.59028e-015
rhumerus -23.5248 -14.6664 -81.8872
rradius 34.3143
rwrist 0.57895
rhand -7.7063 7.50175
rfingers 7.12502
rthumb 18.1914 -21.6676
lclavicle -8.74653e-015 1.59028e-015
lhumerus -27.346 -21.5775 94.3079
lradius 48.7361
lwrist -17.1204
lhand -26.937 -16.9383
lfingers 7.12502
lthumb -0.359201 13.0411
rfemur -23.3958 -3.67483 16.8653
rtibia 40.3063
rfoot -14.9595 15.9143
rtoes -7.07658
lfemur -15.8067 -1.34786 -21.1207
ltibia 63.8071
lfoot -12.7285 5.38552
ltoes -17.9138
125
root 1.86993 18.927 3.26941 -177.282 -8.08186 -182.276
lowerback 3.09781 1.19113 12.9207
upperback 11.6005 -0.549611 1.95114
thorax 11.0399 0.217846 -5.20805
lowerneck -0.262087 9.28188 3.58506
upperneck 15.6462 13.4712 -13.3936
head 5.92536 5.6611 -4.05399
rclavicle 2.8625e-014 2.8625e-014
rhumerus -23.2726 -14.4028 -81.8045
rradius 34.549
rwrist 0.55096
rhand -7.8114 7.58796
rfingers 7.12502
rthumb 18.0903 -21.5908
lclavicle 2.8625e-014 2.8625e-014
lhumerus -27.4877 -21.2027 94.1076
lradius 48.8217
lwrist -17.505
lhand -27.6172 -17.0906
lfingers 7.12502
lthumb -1.01619 12.8867
rfemur -23.2141 -3.60921 16.8022
rtibia 39.9971
rfoot -14.8294 15.9127
rtoes -7.14734
lfemur -17.1723 -1.5656 -21.2891
ltibia 66.0705
lfoot -12.4763 5.46051
ltoes -18.1213
126
root 1.87131 18.9418 3.26963 -177.316 -7.96466 -182.348
lowerback 3.55774 1.24498 13.1667
upperback 11.6653 -0.450131 1.93981
thorax 10.8789 0.269215 -5.34888
lowerneck -0.198893 9.43669 3.78859
upperneck 15.3648 13.714 -13.7232
head 5.88613 5.79608 -4.17361
rclavicle -2.06736e-014 2.06736e-014
rhumerus -23.0429 -14.0876 -81.7183
rradius 34.8555
rwrist 0.457033
rhand -7.95313 7.62103
rfingers 7.12502
rthumb 17.9539 -21.5703
lclavicle -2.06736e-014 2.06736e-014
lhumerus -27.6252 -20.8114 93.8808
lradius 48.939
lwrist -17.8387
lhand -28.3944 -16.9844
lfingers 7.12502
lthumb -1.76686 12.988
rfemur -23.0236 -3.58148 16.7278
rtibia 39.7032
rfoot -14.6777 15.964
rtoes -7.20581
lfemur -18.5544 -1.75247 -21.4616
ltibia 68.3621
lfoot -12.2282 5.47075
ltoes -18.7767
127
root 1.87175 18.9551 3.27169 -177.346 -7.84985 -182.405
lowerback 3.99577 1.30591 13.4295
upperback 11.7371 -0.345148 1.92984
thorax 10.7443 0.325989 -5.49812
lowerneck -0.158895 9.5848 4.03891
upperneck 15.0961 13.952 -14.0895
head 5.86175 5.92756 -4.31115
rclavicle -3.81667e-014 1.59028e-015
rhumerus -22.7997 -13.8165 -81.6236
rradius 35.1883
rwrist 0.356488
rhand -8.09485 7.68157
rfingers 7.12502
rthumb 17.8176 -21.5222
lclavicle -3.81667e-014 1.59028e-015
lhumerus -27.7704 -20.4278 93.6342
lradius 49.0895
lwrist -18.1134
lhand -29.1935 -16.7399
lfingers 7.12502
lthumb -2.53854 13.2247
rfemur -22.865 -3.54396 16.6661
rtibia 39.4377
rfoot -14.5373 16.0001
rtoes -7.15113
lfemur -19.9741 -1.92689 -21.6217
ltibia 70.6568
lfoot -11.9661 5.34714
ltoes -19.4437
128
root 1.87214 18.9675 3.27489 -177.389 -7.72414 -182.477
lowerback 4.42758 1.37364 13.6877
upperback 11.8374 -0.236593 1.90294
thorax 10.6509 0.386781 -5.66435
lowerneck -0.154111 9.73771 4.29635
upperneck 14.843 14.1985 -14.4509
head 5.85116 6.06204 -4.44533
rclavicle -4.13472e-014 -6.52014e-014
rhumerus -22.5262 -13.6414 -81.5392
rradius 35.552
rwrist 0.322068
rhand -8.19952 7.72017
rfingers 7.12502
rthumb 17.7169 -21.4927
lclavicle -4.13472e-014 -6.52014e-014
lhumerus -27.8444 -20.0346 93.3297
lradius 49.2024
lwrist -18.3033
lhand -29.9558 -16.628
lfingers 7.12502
lthumb -3.27479 13.3266
rfemur -22.7041 -3.51858 16.5868
rtibia 39.1929
rfoot -14.407 16.0466
rtoes -7.22152
lfemur -21.4263 -2.07248 -21.7871
ltibia 72.9509
lfoot -11.7058 5.02873
ltoes -19.2988
129
root 1.87121 18.9798 3.27917 -177.445 -7.59881 -182.562
lowerback 4.8672 1.44416 13.931
upperback 11.9464 -0.125217 1.8831
thorax 10.5655 0.446767 -5.81553
lowerneck -0.156969 9.88697 4.49891
upperneck 14.6004 14.4369 -14.7808
head 5.83986 6.19013 -4.56089
rclavicle -2.62396e-014 -5.24792e-014
rhumerus -22.2535 -13.3736 -81.4322
rradius 35.9612
rwrist 0.176762
rhand -8.32973 7.70567
rfingers 7.12502
rthumb 17.5916 -21.5185
lclavicle -2.62396e-014 -5.24792e-014
lhumerus -27.9073 -19.6277 93.0217
lradius 49.3125
lwrist -18.4699
lhand -30.5873 -16.538
lfingers 7.12502
lthumb -3.88463 13.4064
rfemur -22.5388 -3.48474 16.4873
rtibia 38.9659
rfoot -14.2684 16.0993
rtoes -7.26521
lfemur -22.8956 -2.19783 -21.9633
ltibia 75.2293
lfoot -11.5648 4.51255
ltoes -18.4741
130
root 1.87032 18.9912 3.28447 -177.519 -7.46503 -182.673
lowerback 5.34171 1.51824 14.158
upperback 12.0561 0.00125687 1.84055
thorax 10.4647 0.513429 -5.98328
lowerneck -0.180191 10.0326 4.73023
upperneck 14.3647 14.6696 -15.0979
head 5.83626 6.31716 -4.67576
rclavicle 6.12257e-014 8.11041e-014
rhumerus -21.9972 -13.1874 -81.326
rradius 36.3752
rwrist 0.0732865
rhand -8.4719 7.73605
rfingers 7.12502
rthumb 17.4547 -21.5003
lclavicle 6.12257e-014 8.11041e-014
lhumerus -27.9937 -19.2857 92.6685
lradius 49.4479
lwrist -18.5489
lhand -31.1661 -16.443
lfingers 7.12502
lthumb -4.44357 13.4904
rfemur -22.3629 -3.44782 16.3565
rtibia 38.7565
rfoot -14.1485 16.1642
rtoes -7.22187
lfemur -24.3789 -2.28433 -22.163
ltibia 77.4968
lfoot -11.5897 3.89976
ltoes -17.3702
131
root 1.86833 19.0005 3.29094 -177.626 -7.32931 -182.77
lowerback 5.84328 1.59419 14.4018
upperback 12.1773 0.12805 1.81377
thorax 10.3663 0.578982 -6.14432
lowerneck -0.223633 10.1674 4.91856
upperneck 14.1292 14.8864 -15.4058
head 5.83207 6.43317 -4.78098
rclavicle -3.02153e-014 -2.54444e-014
rhumerus -21.7518 -13.0041 -81.1777
rradius 36.8259
rwrist -0.0874616
rhand -8.60765 7.73389
rfingers 7.12502
rthumb 17.3241 -21.514
lclavicle -3.02153e-014 -2.54444e-014
lhumerus -28.0362 -18.889 92.3199
lradius 49.5396
lwrist -18.714
lhand -31.7166 -16.2666
lfingers 7.12502
lthumb -4.97506 13.655
rfemur -22.1638 -3.41484 16.2376
rtibia 38.5614
rfoot -14.0253 16.2274
rtoes -7.20103
lfemur -25.8846 -2.323 -22.3355
ltibia 79.7579
lfoot -11.735 3.19686
ltoes -16.2267
132
root 1.86523 19.0088 3.29824 -177.749 -7.17295 -182.909
lowerback 6.36774 1.67111 14.6022
upperback 12.3188 0.256071 1.77482
thorax 10.2788 0.641626 -6.2966
lowerneck -0.309818 10.3039 5.08733
upperneck 13.8877 15.1051 -15.7007
head 5.83258 6.54865 -4.87606
rclavicle 4.21423e-014 3.33958e-014
rhumerus -21.4849 -12.8647 -81.0307
rradius 37.2947
rwrist -0.216494
rhand -8.77285 7.72503
rfingers 7.12502
rthumb 17.1651 -21.5368
lclavicle 4.21423e-014 3.33958e-014
lhumerus -28.0253 -18.476 91.9248
lradius 49.6222
lwrist -18.8461
lhand -32.1602 -16.1519
lfingers 7.12502
lthumb -5.40345 13.7593
rfemur -21.9585 -3.39239 16.0641
rtibia 38.3761
rfoot -13.9292 16.3392
rtoes -7.29211
lfemur -27.425 -2.32997 -22.5548
ltibia 82.0108
lfoot -11.9881 2.52147
ltoes -15.5388
133
root 1.86214 19.0174 3.30624 -177.9 -7.00381 -183.062
lowerback 6.92916 1.75006 14.7736
upperback 12.4642 0.389496 1.74885
thorax 10.1759 0.700927 -6.42026
lowerneck -0.346176 10.424 5.18667
upperneck 13.5904 15.2908 -15.9702
head 5.79701 6.65123 -4.95781
rclavicle -1.59028e-015 0
rhumerus -21.2327 -12.6564 -80.8504
rradius 37.7715
rwrist -0.431262
rhand -8.94819 7.72124
rfingers 7.12502
rthumb 16.9963 -21.5552
lclavicle -1.59028e-015 0
lhumerus -28.0254 -18.0228 91.5362
lradius 49.7398
lwrist -19.0348
lhand -32.5753 -16.0431
lfingers 7.12502
lthumb -5.80416 13.8574
rfemur -21.7173 -3.29341 15.8689
rtibia 38.191
rfoot -13.842 16.3875
rtoes -7.36411
lfemur -29.0081 -2.29782 -22.7874
ltibia 84.2505
lfoot -12.3162 1.96822
ltoes -15.2457
134
root 1.85751 19.0263 3.314 -178.071 -6.84096 -183.23
lowerback 7.50239 1.82558 14.9488
upperback 12.6273 0.514893 1.717
thorax 10.0893 0.756923 -6.55447
lowerneck -0.438373 10.5344 5.27465
upperneck 13.3161 15.4649 -16.2326
head 5.77646 6.74387 -5.03316
rclavicle 3.57812e-014 -5.725e-014
rhumerus -20.9346 -12.4812 -80.662
rradius 38.2183
rwrist -0.618011
rhand -9.07406 7.74802
rfingers 7.12502
rthumb 16.8751 -21.5388
lclavicle 3.57812e-014 -5.725e-014
lhumerus -27.9776 -17.5293 91.1093
lradius 49.8589
lwrist -19.2619
lhand -32.922 -16.051
lfingers 7.12502
lthumb -6.13894 13.8401
rfemur -21.4559 -3.2526 15.6558
rtibia 38.0111
rfoot -13.7498 16.4939
rtoes -7.40136
lfemur -30.6697 -2.27995 -23.0425
ltibia 86.4811
lfoot -12.5799 1.5071
ltoes -15.2787
135
root 1.85251 19.0359 3.32308 -178.248 -6.67377 -183.411
lowerback 8.10609 1.89908 15.1204
upperback 12.7843 0.646334 1.67286
thorax 9.98201 0.815004 -6.70208
lowerneck -0.4884 10.6416 5.37143
upperneck 13.0106 15.6276 -16.482
head 5.7379 6.83652 -5.10899
rclavicle -3.02153e-014 -2.70347e-014
rhumerus -20.6593 -12.2831 -80.4734
rradius 38.6701
rwrist -0.866076
rhand -9.17473 7.79898
rfingers 7.12502
rthumb 16.7782 -21.4961
lclavicle -3.02153e-014 -2.70347e-014
lhumerus -27.9422 -17.0564 90.6554
lradius 50.0214
lwrist -19.3904
lhand -33.3163 -16.22
lfingers 7.12502
lthumb -6.51954 13.6596
rfemur -21.19 -3.20648 15.4224
rtibia 37.8304
rfoot -13.6434 16.5979
rtoes -7.54076
lfemur -32.4048 -2.23174 -23.3061
ltibia 88.6929
lfoot -12.7606 1.0239
ltoes -15.3964
136
root 1.84736 19.0436 3.33343 -178.426 -6.52917 -183.624
lowerback 8.70961 1.96253 15.2406
upperback 12.959 0.755323 1.64386
thorax 9.88869 0.855598 -6.80678
lowerneck -0.558257 10.746 5.42397
upperneck 12.6786 15.7849 -16.7448
head 5.69241 6.92383 -5.18154
rclavicle -2.22639e-014 -7.63333e-014
rhumerus -20.3175 -12.0448 -80.2631
rradius 39.0757
rwrist -1.10279
rhand -9.2933 7.84892
rfingers 7.12502
rthumb 16.6641 -21.4558
lclavicle -2.22639e-014 -7.63333e-014
lhumerus -27.895 -16.5341 90.2127
lradius 50.2145
lwrist -19.3994
lhand -33.6961 -16.5934
lfingers 7.12502
lthumb -6.88621 13.2746
rfemur -20.9297 -3.17324 15.1539
rtibia 37.6591
rfoot -13.5417 16.695
rtoes -7.59872
lfemur -34.1881 -2.21581 -23.5979
ltibia 90.8737
lfoot -12.9308 0.524015
ltoes -15.6765
